%TF.GenerationSoftware,KiCad,Pcbnew,5.1.10*%
%TF.CreationDate,2021-06-29T06:22:03+03:00*%
%TF.ProjectId,tinyWASP,74696e79-5741-4535-902e-6b696361645f,rev?*%
%TF.SameCoordinates,Original*%
%TF.FileFunction,Legend,Bot*%
%TF.FilePolarity,Positive*%
%FSLAX46Y46*%
G04 Gerber Fmt 4.6, Leading zero omitted, Abs format (unit mm)*
G04 Created by KiCad (PCBNEW 5.1.10) date 2021-06-29 06:22:03*
%MOMM*%
%LPD*%
G01*
G04 APERTURE LIST*
%ADD10C,0.150000*%
%ADD11C,0.120000*%
G04 APERTURE END LIST*
D10*
X157380952Y-111571428D02*
X156619047Y-111571428D01*
X157000000Y-111952380D02*
X157000000Y-111190476D01*
X160238095Y-113500000D02*
X160333333Y-113452380D01*
X160476190Y-113452380D01*
X160619047Y-113500000D01*
X160714285Y-113595238D01*
X160761904Y-113690476D01*
X160809523Y-113880952D01*
X160809523Y-114023809D01*
X160761904Y-114214285D01*
X160714285Y-114309523D01*
X160619047Y-114404761D01*
X160476190Y-114452380D01*
X160380952Y-114452380D01*
X160238095Y-114404761D01*
X160190476Y-114357142D01*
X160190476Y-114023809D01*
X160380952Y-114023809D01*
X162833333Y-113452380D02*
X162500000Y-114452380D01*
X162166666Y-113452380D01*
X157380952Y-92071428D02*
X156619047Y-92071428D01*
X157000000Y-92452380D02*
X157000000Y-91690476D01*
D11*
%TO.C,C2*%
X162640000Y-110392164D02*
X162640000Y-110607836D01*
X163360000Y-110392164D02*
X163360000Y-110607836D01*
%TO.C,D1*%
X157850000Y-95500000D02*
X156150000Y-95500000D01*
X156150000Y-95500000D02*
X156150000Y-92950000D01*
X157850000Y-95500000D02*
X157850000Y-92950000D01*
%TO.C,J1*%
X161535000Y-99735000D02*
X161535000Y-103265000D01*
X165465000Y-99735000D02*
X165465000Y-103265000D01*
X161600000Y-98410000D02*
X161600000Y-99735000D01*
X161535000Y-99735000D02*
X161600000Y-99735000D01*
X161535000Y-103265000D02*
X161600000Y-103265000D01*
X165400000Y-99735000D02*
X165465000Y-99735000D01*
X165400000Y-103265000D02*
X165465000Y-103265000D01*
%TO.C,J6*%
X157700000Y-113000000D02*
G75*
G03*
X157700000Y-113000000I-700000J0D01*
G01*
%TO.C,J7*%
X164700000Y-113700000D02*
X164700000Y-112300000D01*
X163300000Y-113700000D02*
X164700000Y-113700000D01*
X163300000Y-112300000D02*
X163300000Y-113700000D01*
X164700000Y-112300000D02*
X163300000Y-112300000D01*
%TO.C,Q1*%
X158420000Y-93240000D02*
X159350000Y-93240000D01*
X161580000Y-93240000D02*
X160650000Y-93240000D01*
X161580000Y-93240000D02*
X161580000Y-95400000D01*
X158420000Y-93240000D02*
X158420000Y-94700000D01*
%TO.C,R1*%
X160880000Y-96846359D02*
X160880000Y-97153641D01*
X160120000Y-96846359D02*
X160120000Y-97153641D01*
%TO.C,R2*%
X159120000Y-96846359D02*
X159120000Y-97153641D01*
X159880000Y-96846359D02*
X159880000Y-97153641D01*
%TO.C,R8*%
X163380000Y-108346359D02*
X163380000Y-108653641D01*
X162620000Y-108346359D02*
X162620000Y-108653641D01*
%TO.C,R9*%
X157620000Y-110346359D02*
X157620000Y-110653641D01*
X158380000Y-110346359D02*
X158380000Y-110653641D01*
D10*
%TO.C,U2*%
X161500000Y-111100000D02*
X159500000Y-111100000D01*
X160500000Y-108900000D02*
X159500000Y-108900000D01*
%TD*%
M02*
