%TF.GenerationSoftware,KiCad,Pcbnew,5.1.10*%
%TF.CreationDate,2021-06-29T06:22:03+03:00*%
%TF.ProjectId,tinyWASP,74696e79-5741-4535-902e-6b696361645f,rev?*%
%TF.SameCoordinates,Original*%
%TF.FileFunction,Copper,L2,Bot*%
%TF.FilePolarity,Positive*%
%FSLAX46Y46*%
G04 Gerber Fmt 4.6, Leading zero omitted, Abs format (unit mm)*
G04 Created by KiCad (PCBNEW 5.1.10) date 2021-06-29 06:22:03*
%MOMM*%
%LPD*%
G01*
G04 APERTURE LIST*
%TA.AperFunction,SMDPad,CuDef*%
%ADD10R,0.450000X0.600000*%
%TD*%
%TA.AperFunction,SMDPad,CuDef*%
%ADD11R,0.740000X2.400000*%
%TD*%
%TA.AperFunction,SMDPad,CuDef*%
%ADD12C,1.000000*%
%TD*%
%TA.AperFunction,SMDPad,CuDef*%
%ADD13R,1.000000X1.000000*%
%TD*%
%TA.AperFunction,SMDPad,CuDef*%
%ADD14R,0.800000X0.900000*%
%TD*%
%TA.AperFunction,SMDPad,CuDef*%
%ADD15R,0.650000X0.350000*%
%TD*%
%TA.AperFunction,SMDPad,CuDef*%
%ADD16R,1.000000X1.600000*%
%TD*%
%TA.AperFunction,ViaPad*%
%ADD17C,0.800000*%
%TD*%
%TA.AperFunction,ViaPad*%
%ADD18C,0.600000*%
%TD*%
%TA.AperFunction,Conductor*%
%ADD19C,0.350000*%
%TD*%
%TA.AperFunction,Conductor*%
%ADD20C,0.150000*%
%TD*%
%TA.AperFunction,Conductor*%
%ADD21C,0.250000*%
%TD*%
%TA.AperFunction,Conductor*%
%ADD22C,0.100000*%
%TD*%
G04 APERTURE END LIST*
%TO.P,C2,1*%
%TO.N,GND*%
%TA.AperFunction,SMDPad,CuDef*%
G36*
G01*
X162830000Y-109740000D02*
X163170000Y-109740000D01*
G75*
G02*
X163310000Y-109880000I0J-140000D01*
G01*
X163310000Y-110160000D01*
G75*
G02*
X163170000Y-110300000I-140000J0D01*
G01*
X162830000Y-110300000D01*
G75*
G02*
X162690000Y-110160000I0J140000D01*
G01*
X162690000Y-109880000D01*
G75*
G02*
X162830000Y-109740000I140000J0D01*
G01*
G37*
%TD.AperFunction*%
%TO.P,C2,2*%
%TO.N,VCC*%
%TA.AperFunction,SMDPad,CuDef*%
G36*
G01*
X162830000Y-110700000D02*
X163170000Y-110700000D01*
G75*
G02*
X163310000Y-110840000I0J-140000D01*
G01*
X163310000Y-111120000D01*
G75*
G02*
X163170000Y-111260000I-140000J0D01*
G01*
X162830000Y-111260000D01*
G75*
G02*
X162690000Y-111120000I0J140000D01*
G01*
X162690000Y-110840000D01*
G75*
G02*
X162830000Y-110700000I140000J0D01*
G01*
G37*
%TD.AperFunction*%
%TD*%
D10*
%TO.P,D1,1*%
%TO.N,VDD*%
X157000000Y-95050000D03*
%TO.P,D1,2*%
%TO.N,Net-(BZ1-Pad2)*%
X157000000Y-92950000D03*
%TD*%
D11*
%TO.P,J1,1*%
%TO.N,/PA5_MISO*%
X162230000Y-99550000D03*
%TO.P,J1,2*%
%TO.N,VDD*%
X162230000Y-103450000D03*
%TO.P,J1,3*%
%TO.N,/PA4_SCK*%
X163500000Y-99550000D03*
%TO.P,J1,4*%
%TO.N,/PA6_MOSI*%
X163500000Y-103450000D03*
%TO.P,J1,5*%
%TO.N,/RST*%
X164770000Y-99550000D03*
%TO.P,J1,6*%
%TO.N,GND*%
X164770000Y-103450000D03*
%TD*%
D12*
%TO.P,J6,1*%
%TO.N,VDD*%
X157000000Y-113000000D03*
%TD*%
D13*
%TO.P,J7,1*%
%TO.N,GND*%
X164000000Y-113000000D03*
%TD*%
D14*
%TO.P,Q1,1*%
%TO.N,Net-(Q1-Pad1)*%
X160950000Y-95000000D03*
%TO.P,Q1,2*%
%TO.N,GND*%
X159050000Y-95000000D03*
%TO.P,Q1,3*%
%TO.N,Net-(BZ1-Pad2)*%
X160000000Y-93000000D03*
%TD*%
%TO.P,R1,2*%
%TO.N,/PA6_MOSI*%
%TA.AperFunction,SMDPad,CuDef*%
G36*
G01*
X160315000Y-97240000D02*
X160685000Y-97240000D01*
G75*
G02*
X160820000Y-97375000I0J-135000D01*
G01*
X160820000Y-97645000D01*
G75*
G02*
X160685000Y-97780000I-135000J0D01*
G01*
X160315000Y-97780000D01*
G75*
G02*
X160180000Y-97645000I0J135000D01*
G01*
X160180000Y-97375000D01*
G75*
G02*
X160315000Y-97240000I135000J0D01*
G01*
G37*
%TD.AperFunction*%
%TO.P,R1,1*%
%TO.N,Net-(Q1-Pad1)*%
%TA.AperFunction,SMDPad,CuDef*%
G36*
G01*
X160315000Y-96220000D02*
X160685000Y-96220000D01*
G75*
G02*
X160820000Y-96355000I0J-135000D01*
G01*
X160820000Y-96625000D01*
G75*
G02*
X160685000Y-96760000I-135000J0D01*
G01*
X160315000Y-96760000D01*
G75*
G02*
X160180000Y-96625000I0J135000D01*
G01*
X160180000Y-96355000D01*
G75*
G02*
X160315000Y-96220000I135000J0D01*
G01*
G37*
%TD.AperFunction*%
%TD*%
%TO.P,R2,1*%
%TO.N,Net-(Q1-Pad1)*%
%TA.AperFunction,SMDPad,CuDef*%
G36*
G01*
X159315000Y-96220000D02*
X159685000Y-96220000D01*
G75*
G02*
X159820000Y-96355000I0J-135000D01*
G01*
X159820000Y-96625000D01*
G75*
G02*
X159685000Y-96760000I-135000J0D01*
G01*
X159315000Y-96760000D01*
G75*
G02*
X159180000Y-96625000I0J135000D01*
G01*
X159180000Y-96355000D01*
G75*
G02*
X159315000Y-96220000I135000J0D01*
G01*
G37*
%TD.AperFunction*%
%TO.P,R2,2*%
%TO.N,GND*%
%TA.AperFunction,SMDPad,CuDef*%
G36*
G01*
X159315000Y-97240000D02*
X159685000Y-97240000D01*
G75*
G02*
X159820000Y-97375000I0J-135000D01*
G01*
X159820000Y-97645000D01*
G75*
G02*
X159685000Y-97780000I-135000J0D01*
G01*
X159315000Y-97780000D01*
G75*
G02*
X159180000Y-97645000I0J135000D01*
G01*
X159180000Y-97375000D01*
G75*
G02*
X159315000Y-97240000I135000J0D01*
G01*
G37*
%TD.AperFunction*%
%TD*%
%TO.P,R8,2*%
%TO.N,GND*%
%TA.AperFunction,SMDPad,CuDef*%
G36*
G01*
X162815000Y-108740000D02*
X163185000Y-108740000D01*
G75*
G02*
X163320000Y-108875000I0J-135000D01*
G01*
X163320000Y-109145000D01*
G75*
G02*
X163185000Y-109280000I-135000J0D01*
G01*
X162815000Y-109280000D01*
G75*
G02*
X162680000Y-109145000I0J135000D01*
G01*
X162680000Y-108875000D01*
G75*
G02*
X162815000Y-108740000I135000J0D01*
G01*
G37*
%TD.AperFunction*%
%TO.P,R8,1*%
%TO.N,Net-(R8-Pad1)*%
%TA.AperFunction,SMDPad,CuDef*%
G36*
G01*
X162815000Y-107720000D02*
X163185000Y-107720000D01*
G75*
G02*
X163320000Y-107855000I0J-135000D01*
G01*
X163320000Y-108125000D01*
G75*
G02*
X163185000Y-108260000I-135000J0D01*
G01*
X162815000Y-108260000D01*
G75*
G02*
X162680000Y-108125000I0J135000D01*
G01*
X162680000Y-107855000D01*
G75*
G02*
X162815000Y-107720000I135000J0D01*
G01*
G37*
%TD.AperFunction*%
%TD*%
%TO.P,R9,1*%
%TO.N,Net-(R9-Pad1)*%
%TA.AperFunction,SMDPad,CuDef*%
G36*
G01*
X157815000Y-109720000D02*
X158185000Y-109720000D01*
G75*
G02*
X158320000Y-109855000I0J-135000D01*
G01*
X158320000Y-110125000D01*
G75*
G02*
X158185000Y-110260000I-135000J0D01*
G01*
X157815000Y-110260000D01*
G75*
G02*
X157680000Y-110125000I0J135000D01*
G01*
X157680000Y-109855000D01*
G75*
G02*
X157815000Y-109720000I135000J0D01*
G01*
G37*
%TD.AperFunction*%
%TO.P,R9,2*%
%TO.N,VDD*%
%TA.AperFunction,SMDPad,CuDef*%
G36*
G01*
X157815000Y-110740000D02*
X158185000Y-110740000D01*
G75*
G02*
X158320000Y-110875000I0J-135000D01*
G01*
X158320000Y-111145000D01*
G75*
G02*
X158185000Y-111280000I-135000J0D01*
G01*
X157815000Y-111280000D01*
G75*
G02*
X157680000Y-111145000I0J135000D01*
G01*
X157680000Y-110875000D01*
G75*
G02*
X157815000Y-110740000I135000J0D01*
G01*
G37*
%TD.AperFunction*%
%TD*%
D15*
%TO.P,U2,1*%
%TO.N,Net-(R8-Pad1)*%
X161550000Y-109350000D03*
%TO.P,U2,2*%
%TO.N,GND*%
X161550000Y-110000000D03*
%TO.P,U2,3*%
%TO.N,VCC*%
X161550000Y-110650000D03*
%TO.P,U2,4*%
%TO.N,VDD*%
X159450000Y-110650000D03*
%TO.P,U2,5*%
%TO.N,Net-(R9-Pad1)*%
X159450000Y-110000000D03*
%TO.P,U2,6*%
%TO.N,/~CHRG*%
X159450000Y-109350000D03*
D16*
%TO.P,U2,7*%
%TO.N,N/C*%
X160500000Y-110000000D03*
%TD*%
D17*
%TO.N,Net-(BZ1-Pad2)*%
X163500000Y-93000000D03*
%TO.N,VDD*%
X157000000Y-96000000D03*
D18*
X156000000Y-104500000D03*
X157000000Y-108500000D03*
D17*
X157000000Y-99500000D03*
D18*
X157500000Y-101125000D03*
%TO.N,GND*%
X155500000Y-100000000D03*
X155500000Y-112500000D03*
X155500000Y-114500000D03*
X155500000Y-110500000D03*
X164500000Y-108000000D03*
X155500000Y-95500000D03*
X155500000Y-93500000D03*
X156000000Y-92500000D03*
X156000000Y-94500000D03*
X163000000Y-95500000D03*
X163000000Y-94000000D03*
X161500000Y-94000000D03*
X161500000Y-97000000D03*
X164500000Y-109500000D03*
X164500000Y-106500000D03*
X159500000Y-113000000D03*
X161000000Y-113000000D03*
D17*
%TO.N,VCC*%
X162500000Y-112000000D03*
D18*
X162500000Y-107024990D03*
X162500000Y-105324980D03*
%TO.N,/PA5_MISO*%
X161500000Y-101000000D03*
%TO.N,/PA4_SCK*%
X161000000Y-100000000D03*
%TO.N,/PA6_MOSI*%
X161359998Y-104500000D03*
%TO.N,/RST*%
X159000000Y-114000000D03*
%TO.N,/~CHRG*%
X159500000Y-100000000D03*
%TD*%
D19*
%TO.N,Net-(BZ1-Pad2)*%
X159950000Y-92950000D02*
X160000000Y-93000000D01*
X157000000Y-92950000D02*
X159950000Y-92950000D01*
X163500000Y-93000000D02*
X160000000Y-93000000D01*
%TO.N,VDD*%
X158360000Y-110650000D02*
X158000000Y-111010000D01*
X159450000Y-110650000D02*
X158360000Y-110650000D01*
X157000000Y-113000000D02*
X157000000Y-112010000D01*
X157000000Y-96000000D02*
X157000000Y-95050000D01*
X157000000Y-105500000D02*
X156000000Y-104500000D01*
X157000000Y-109000000D02*
X157000000Y-108500000D01*
X157000000Y-108500000D02*
X157000000Y-108500000D01*
X157000000Y-108500000D02*
X157000000Y-105500000D01*
X157010000Y-111010000D02*
X157000000Y-111000000D01*
X158000000Y-111010000D02*
X157010000Y-111010000D01*
X157000000Y-111000000D02*
X157000000Y-109000000D01*
X157000000Y-112010000D02*
X157000000Y-111000000D01*
X156000000Y-104500000D02*
X156000000Y-100500000D01*
X156000000Y-100500000D02*
X157000000Y-99500000D01*
D20*
X157500000Y-104500000D02*
X157500000Y-101494988D01*
X158075001Y-105075001D02*
X157500000Y-104500000D01*
X161635999Y-105075001D02*
X158075001Y-105075001D01*
X162230000Y-104481000D02*
X161635999Y-105075001D01*
X157500000Y-101494988D02*
X157500000Y-101125000D01*
X162230000Y-103450000D02*
X162230000Y-104481000D01*
D19*
%TO.N,GND*%
X162980000Y-110000000D02*
X163000000Y-110020000D01*
X161550000Y-110000000D02*
X162980000Y-110000000D01*
X163310000Y-110020000D02*
X163000000Y-110020000D01*
X164000000Y-110710000D02*
X163310000Y-110020000D01*
X164000000Y-113000000D02*
X164000000Y-110710000D01*
%TO.N,VCC*%
X163000000Y-110980000D02*
X162520000Y-110980000D01*
X162190000Y-110650000D02*
X161550000Y-110650000D01*
X162520000Y-110980000D02*
X162190000Y-110650000D01*
X163000000Y-110980000D02*
X163000000Y-111500000D01*
X163000000Y-111500000D02*
X162500000Y-112000000D01*
D20*
X162500000Y-107024990D02*
X162500000Y-105324980D01*
%TO.N,/PA5_MISO*%
X162230000Y-100270000D02*
X162230000Y-99550000D01*
X161500000Y-101000000D02*
X162230000Y-100270000D01*
%TO.N,/PA4_SCK*%
X163500000Y-98754998D02*
X163500000Y-99550000D01*
X162820001Y-98074999D02*
X163500000Y-98754998D01*
X161639999Y-98074999D02*
X162820001Y-98074999D01*
X161000000Y-98714998D02*
X161639999Y-98074999D01*
X161000000Y-100000000D02*
X161000000Y-98714998D01*
%TO.N,/PA6_MOSI*%
X160500000Y-98650002D02*
X160500000Y-97510000D01*
X160075001Y-99075001D02*
X160500000Y-98650002D01*
X163500000Y-102100000D02*
X163500000Y-103450000D01*
X163374999Y-101974999D02*
X163500000Y-102100000D01*
X161639999Y-101974999D02*
X163374999Y-101974999D01*
X161359998Y-102255000D02*
X161639999Y-101974999D01*
X161359998Y-104500000D02*
X161359998Y-102255000D01*
X160075001Y-100970003D02*
X160075001Y-99075001D01*
X161359998Y-102255000D02*
X160075001Y-100970003D01*
%TO.N,/RST*%
X164495002Y-114000000D02*
X165500000Y-112995002D01*
X159000000Y-114000000D02*
X164495002Y-114000000D01*
X165500000Y-100280000D02*
X164770000Y-99550000D01*
X165500000Y-112995002D02*
X165500000Y-100280000D01*
D19*
%TO.N,Net-(Q1-Pad1)*%
X160950000Y-96040000D02*
X160500000Y-96490000D01*
X160950000Y-95000000D02*
X160950000Y-96040000D01*
X160500000Y-96490000D02*
X159500000Y-96490000D01*
%TO.N,Net-(R8-Pad1)*%
X161850000Y-109350000D02*
X162000000Y-109200000D01*
X161550000Y-109350000D02*
X161850000Y-109350000D01*
X162680000Y-107990000D02*
X163000000Y-107990000D01*
X162000000Y-108670000D02*
X162680000Y-107990000D01*
X162000000Y-109200000D02*
X162000000Y-108670000D01*
%TO.N,Net-(R9-Pad1)*%
X159440000Y-109990000D02*
X159450000Y-110000000D01*
X158000000Y-109990000D02*
X159440000Y-109990000D01*
D21*
%TO.N,/~CHRG*%
X158475001Y-109350000D02*
X159450000Y-109350000D01*
X157625001Y-108874999D02*
X158100002Y-109350000D01*
X157625001Y-105199999D02*
X157625001Y-108874999D01*
X156500000Y-104074998D02*
X157625001Y-105199999D01*
X156500000Y-100707120D02*
X156500000Y-104074998D01*
X159000000Y-100500000D02*
X156707120Y-100500000D01*
X158100002Y-109350000D02*
X158475001Y-109350000D01*
X156707120Y-100500000D02*
X156500000Y-100707120D01*
X159500000Y-100000000D02*
X159000000Y-100500000D01*
%TD*%
D20*
%TO.N,GND*%
X165773001Y-100060944D02*
X165748685Y-100031315D01*
X165735325Y-100020351D01*
X165416330Y-99701356D01*
X165416330Y-98350000D01*
X165411020Y-98296091D01*
X165395296Y-98244253D01*
X165369760Y-98196479D01*
X165335395Y-98154605D01*
X165293521Y-98120240D01*
X165245747Y-98094704D01*
X165193909Y-98078980D01*
X165140000Y-98073670D01*
X164400000Y-98073670D01*
X164346091Y-98078980D01*
X164294253Y-98094704D01*
X164246479Y-98120240D01*
X164204605Y-98154605D01*
X164170240Y-98196479D01*
X164144704Y-98244253D01*
X164135000Y-98276245D01*
X164125296Y-98244253D01*
X164099760Y-98196479D01*
X164065395Y-98154605D01*
X164023521Y-98120240D01*
X163975747Y-98094704D01*
X163923909Y-98078980D01*
X163870000Y-98073670D01*
X163313645Y-98073670D01*
X163079654Y-97839679D01*
X163068686Y-97826314D01*
X163015391Y-97782577D01*
X162954588Y-97750077D01*
X162888613Y-97730064D01*
X162837190Y-97724999D01*
X162837189Y-97724999D01*
X162820001Y-97723306D01*
X162802813Y-97724999D01*
X161657184Y-97724999D01*
X161639998Y-97723306D01*
X161622812Y-97724999D01*
X161622810Y-97724999D01*
X161571387Y-97730064D01*
X161505412Y-97750077D01*
X161444609Y-97782577D01*
X161391314Y-97826314D01*
X161380354Y-97839669D01*
X160850000Y-98370025D01*
X160850000Y-98020962D01*
X160913523Y-97987008D01*
X160975854Y-97935854D01*
X161027008Y-97873523D01*
X161065019Y-97802409D01*
X161088426Y-97725247D01*
X161096330Y-97645000D01*
X161096330Y-97375000D01*
X161088426Y-97294753D01*
X161065019Y-97217591D01*
X161027008Y-97146477D01*
X160975854Y-97084146D01*
X160913523Y-97032992D01*
X160851799Y-97000000D01*
X160913523Y-96967008D01*
X160975854Y-96915854D01*
X161027008Y-96853523D01*
X161065019Y-96782409D01*
X161088426Y-96705247D01*
X161096330Y-96625000D01*
X161096330Y-96530066D01*
X161252572Y-96373824D01*
X161269737Y-96359737D01*
X161283824Y-96342572D01*
X161283828Y-96342568D01*
X161325971Y-96291217D01*
X161367757Y-96213041D01*
X161379891Y-96173040D01*
X161393489Y-96128215D01*
X161400000Y-96062105D01*
X161400000Y-96062095D01*
X161402176Y-96040001D01*
X161400000Y-96017906D01*
X161400000Y-95721405D01*
X161403909Y-95721020D01*
X161455747Y-95705296D01*
X161503521Y-95679760D01*
X161545395Y-95645395D01*
X161579760Y-95603521D01*
X161605296Y-95555747D01*
X161621020Y-95503909D01*
X161626330Y-95450000D01*
X161626330Y-94550000D01*
X161621020Y-94496091D01*
X161605296Y-94444253D01*
X161579760Y-94396479D01*
X161545395Y-94354605D01*
X161503521Y-94320240D01*
X161455747Y-94294704D01*
X161403909Y-94278980D01*
X161350000Y-94273670D01*
X160550000Y-94273670D01*
X160496091Y-94278980D01*
X160444253Y-94294704D01*
X160396479Y-94320240D01*
X160354605Y-94354605D01*
X160320240Y-94396479D01*
X160294704Y-94444253D01*
X160278980Y-94496091D01*
X160273670Y-94550000D01*
X160273670Y-95450000D01*
X160278980Y-95503909D01*
X160294704Y-95555747D01*
X160320240Y-95603521D01*
X160354605Y-95645395D01*
X160396479Y-95679760D01*
X160444253Y-95705296D01*
X160496091Y-95721020D01*
X160500001Y-95721405D01*
X160500001Y-95853603D01*
X160409934Y-95943670D01*
X160315000Y-95943670D01*
X160234753Y-95951574D01*
X160157591Y-95974981D01*
X160086477Y-96012992D01*
X160053568Y-96040000D01*
X159946432Y-96040000D01*
X159913523Y-96012992D01*
X159842409Y-95974981D01*
X159765247Y-95951574D01*
X159750997Y-95950170D01*
X159775465Y-95937092D01*
X159864238Y-95864238D01*
X159937092Y-95775465D01*
X159991228Y-95674184D01*
X160024565Y-95564288D01*
X160035821Y-95450000D01*
X160033000Y-95324750D01*
X159887250Y-95179000D01*
X159229000Y-95179000D01*
X159229000Y-95887250D01*
X159288072Y-95946322D01*
X159234753Y-95951574D01*
X159157591Y-95974981D01*
X159086477Y-96012992D01*
X159024146Y-96064146D01*
X158972992Y-96126477D01*
X158934981Y-96197591D01*
X158911574Y-96274753D01*
X158903670Y-96355000D01*
X158903670Y-96625000D01*
X158911574Y-96705247D01*
X158916047Y-96719993D01*
X158876645Y-96738840D01*
X158784702Y-96807651D01*
X158707950Y-96893077D01*
X158649339Y-96991835D01*
X158611121Y-97100131D01*
X158597000Y-97185250D01*
X158742750Y-97331000D01*
X159321000Y-97331000D01*
X159321000Y-97311000D01*
X159679000Y-97311000D01*
X159679000Y-97331000D01*
X159699000Y-97331000D01*
X159699000Y-97689000D01*
X159679000Y-97689000D01*
X159679000Y-98217250D01*
X159824750Y-98363000D01*
X159908478Y-98359101D01*
X160019755Y-98330713D01*
X160123355Y-98281160D01*
X160150000Y-98261218D01*
X160150000Y-98505027D01*
X159839676Y-98815353D01*
X159826317Y-98826316D01*
X159782580Y-98879611D01*
X159766130Y-98910387D01*
X159750080Y-98940414D01*
X159730066Y-99006390D01*
X159723308Y-99075001D01*
X159725002Y-99092199D01*
X159725002Y-99470823D01*
X159667721Y-99447097D01*
X159556633Y-99425000D01*
X159443367Y-99425000D01*
X159332279Y-99447097D01*
X159227635Y-99490442D01*
X159133459Y-99553368D01*
X159053368Y-99633459D01*
X158990442Y-99727635D01*
X158947097Y-99832279D01*
X158925000Y-99943367D01*
X158925000Y-100009315D01*
X158834315Y-100100000D01*
X157315331Y-100100000D01*
X157319732Y-100098177D01*
X157430287Y-100024307D01*
X157524307Y-99930287D01*
X157598177Y-99819732D01*
X157649060Y-99696890D01*
X157675000Y-99566482D01*
X157675000Y-99433518D01*
X157649060Y-99303110D01*
X157598177Y-99180268D01*
X157524307Y-99069713D01*
X157430287Y-98975693D01*
X157319732Y-98901823D01*
X157196890Y-98850940D01*
X157066482Y-98825000D01*
X156933518Y-98825000D01*
X156803110Y-98850940D01*
X156680268Y-98901823D01*
X156569713Y-98975693D01*
X156475693Y-99069713D01*
X156401823Y-99180268D01*
X156350940Y-99303110D01*
X156325000Y-99433518D01*
X156325000Y-99538604D01*
X155697429Y-100166176D01*
X155680264Y-100180263D01*
X155666177Y-100197428D01*
X155666172Y-100197433D01*
X155624029Y-100248784D01*
X155582243Y-100326960D01*
X155556512Y-100411785D01*
X155547824Y-100500000D01*
X155550001Y-100522104D01*
X155550000Y-104138499D01*
X155490442Y-104227635D01*
X155447097Y-104332279D01*
X155425000Y-104443367D01*
X155425000Y-104556633D01*
X155447097Y-104667721D01*
X155490442Y-104772365D01*
X155553368Y-104866541D01*
X155633459Y-104946632D01*
X155727635Y-105009558D01*
X155832279Y-105052903D01*
X155937422Y-105073818D01*
X156550001Y-105686397D01*
X156550000Y-108138499D01*
X156490442Y-108227635D01*
X156447097Y-108332279D01*
X156425000Y-108443367D01*
X156425000Y-108556633D01*
X156447097Y-108667721D01*
X156490442Y-108772365D01*
X156550000Y-108861501D01*
X156550000Y-109022104D01*
X156550001Y-109022114D01*
X156550000Y-110977905D01*
X156547824Y-111000000D01*
X156550000Y-111022094D01*
X156550000Y-111022104D01*
X156550001Y-111022114D01*
X156550000Y-112032104D01*
X156550001Y-112032114D01*
X156550001Y-112368595D01*
X156505966Y-112398018D01*
X156398018Y-112505966D01*
X156313204Y-112632900D01*
X156254783Y-112773941D01*
X156225000Y-112923669D01*
X156225000Y-113076331D01*
X156254783Y-113226059D01*
X156313204Y-113367100D01*
X156398018Y-113494034D01*
X156505966Y-113601982D01*
X156632900Y-113686796D01*
X156773941Y-113745217D01*
X156923669Y-113775000D01*
X157076331Y-113775000D01*
X157226059Y-113745217D01*
X157367100Y-113686796D01*
X157494034Y-113601982D01*
X157601982Y-113494034D01*
X157686796Y-113367100D01*
X157745217Y-113226059D01*
X157775000Y-113076331D01*
X157775000Y-112923669D01*
X157745217Y-112773941D01*
X157686796Y-112632900D01*
X157601982Y-112505966D01*
X157494034Y-112398018D01*
X157450000Y-112368596D01*
X157450000Y-111460000D01*
X157553568Y-111460000D01*
X157586477Y-111487008D01*
X157657591Y-111525019D01*
X157734753Y-111548426D01*
X157815000Y-111556330D01*
X158185000Y-111556330D01*
X158265247Y-111548426D01*
X158342409Y-111525019D01*
X158413523Y-111487008D01*
X158475854Y-111435854D01*
X158527008Y-111373523D01*
X158565019Y-111302409D01*
X158588426Y-111225247D01*
X158596330Y-111145000D01*
X158596330Y-111100000D01*
X159111497Y-111100000D01*
X159125000Y-111101330D01*
X159775000Y-111101330D01*
X159828909Y-111096020D01*
X159880747Y-111080296D01*
X159915475Y-111061733D01*
X159946091Y-111071020D01*
X160000000Y-111076330D01*
X161000000Y-111076330D01*
X161053909Y-111071020D01*
X161084525Y-111061733D01*
X161119253Y-111080296D01*
X161171091Y-111096020D01*
X161225000Y-111101330D01*
X161875000Y-111101330D01*
X161888503Y-111100000D01*
X162003605Y-111100000D01*
X162186175Y-111282571D01*
X162200263Y-111299737D01*
X162217428Y-111313824D01*
X162217432Y-111313828D01*
X162268783Y-111355971D01*
X162278467Y-111361147D01*
X162180268Y-111401823D01*
X162069713Y-111475693D01*
X161975693Y-111569713D01*
X161901823Y-111680268D01*
X161850940Y-111803110D01*
X161825000Y-111933518D01*
X161825000Y-112066482D01*
X161850940Y-112196890D01*
X161901823Y-112319732D01*
X161975693Y-112430287D01*
X162069713Y-112524307D01*
X162180268Y-112598177D01*
X162303110Y-112649060D01*
X162433518Y-112675000D01*
X162566482Y-112675000D01*
X162696890Y-112649060D01*
X162819732Y-112598177D01*
X162914738Y-112534697D01*
X162917000Y-112675250D01*
X163062750Y-112821000D01*
X163821000Y-112821000D01*
X163821000Y-112062750D01*
X163675250Y-111917000D01*
X163500000Y-111914179D01*
X163385712Y-111925435D01*
X163275816Y-111958772D01*
X163175000Y-112012659D01*
X163175000Y-111961396D01*
X163302572Y-111833824D01*
X163319737Y-111819737D01*
X163333824Y-111802572D01*
X163333828Y-111802568D01*
X163375971Y-111751217D01*
X163417757Y-111673041D01*
X163429591Y-111634029D01*
X163443489Y-111588215D01*
X163450000Y-111522105D01*
X163450000Y-111522094D01*
X163452176Y-111500000D01*
X163450000Y-111477906D01*
X163450000Y-111426200D01*
X163464390Y-111414390D01*
X163516166Y-111351301D01*
X163554639Y-111279323D01*
X163578330Y-111201222D01*
X163586330Y-111120000D01*
X163586330Y-110840000D01*
X163583875Y-110815072D01*
X163617133Y-110798854D01*
X163708553Y-110729350D01*
X163784657Y-110643346D01*
X163842520Y-110544148D01*
X163879919Y-110435567D01*
X163893000Y-110344750D01*
X163747250Y-110199000D01*
X163179000Y-110199000D01*
X163179000Y-110219000D01*
X162821000Y-110219000D01*
X162821000Y-110199000D01*
X162411250Y-110199000D01*
X162312250Y-110100000D01*
X161729000Y-110100000D01*
X161729000Y-110175000D01*
X161371000Y-110175000D01*
X161371000Y-110100000D01*
X161351000Y-110100000D01*
X161351000Y-109900000D01*
X161371000Y-109900000D01*
X161371000Y-109825000D01*
X161729000Y-109825000D01*
X161729000Y-109900000D01*
X162312250Y-109900000D01*
X162371250Y-109841000D01*
X162520569Y-109841000D01*
X162591522Y-109859101D01*
X162675250Y-109863000D01*
X162697250Y-109841000D01*
X162821000Y-109841000D01*
X162821000Y-109189000D01*
X163179000Y-109189000D01*
X163179000Y-109841000D01*
X163302750Y-109841000D01*
X163324750Y-109863000D01*
X163408478Y-109859101D01*
X163479431Y-109841000D01*
X163747250Y-109841000D01*
X163893000Y-109695250D01*
X163879919Y-109604433D01*
X163852173Y-109523879D01*
X163888879Y-109419869D01*
X163903000Y-109334750D01*
X163757250Y-109189000D01*
X163507025Y-109189000D01*
X163402851Y-109161584D01*
X163324750Y-109157000D01*
X163292750Y-109189000D01*
X163179000Y-109189000D01*
X162821000Y-109189000D01*
X162801000Y-109189000D01*
X162801000Y-108831000D01*
X162821000Y-108831000D01*
X162821000Y-108811000D01*
X163179000Y-108811000D01*
X163179000Y-108831000D01*
X163757250Y-108831000D01*
X163903000Y-108685250D01*
X163888879Y-108600131D01*
X163850661Y-108491835D01*
X163792050Y-108393077D01*
X163715298Y-108307651D01*
X163623355Y-108238840D01*
X163583953Y-108219993D01*
X163588426Y-108205247D01*
X163596330Y-108125000D01*
X163596330Y-107855000D01*
X163588426Y-107774753D01*
X163565019Y-107697591D01*
X163527008Y-107626477D01*
X163475854Y-107564146D01*
X163413523Y-107512992D01*
X163342409Y-107474981D01*
X163265247Y-107451574D01*
X163185000Y-107443670D01*
X162894493Y-107443670D01*
X162946632Y-107391531D01*
X163009558Y-107297355D01*
X163052903Y-107192711D01*
X163075000Y-107081623D01*
X163075000Y-106968357D01*
X163052903Y-106857269D01*
X163009558Y-106752625D01*
X162946632Y-106658449D01*
X162866541Y-106578358D01*
X162850000Y-106567306D01*
X162850000Y-105782664D01*
X162866541Y-105771612D01*
X162946632Y-105691521D01*
X163009558Y-105597345D01*
X163052903Y-105492701D01*
X163075000Y-105381613D01*
X163075000Y-105268347D01*
X163052903Y-105157259D01*
X163009558Y-105052615D01*
X162946632Y-104958439D01*
X162866541Y-104878348D01*
X162803125Y-104835975D01*
X162829760Y-104803521D01*
X162855296Y-104755747D01*
X162865000Y-104723755D01*
X162874704Y-104755747D01*
X162900240Y-104803521D01*
X162934605Y-104845395D01*
X162976479Y-104879760D01*
X163024253Y-104905296D01*
X163076091Y-104921020D01*
X163130000Y-104926330D01*
X163870000Y-104926330D01*
X163885812Y-104924773D01*
X163912908Y-104975465D01*
X163985762Y-105064238D01*
X164074535Y-105137092D01*
X164175816Y-105191228D01*
X164285712Y-105224565D01*
X164400000Y-105235821D01*
X164445250Y-105233000D01*
X164591000Y-105087250D01*
X164591000Y-103629000D01*
X164571000Y-103629000D01*
X164571000Y-103271000D01*
X164591000Y-103271000D01*
X164591000Y-101812750D01*
X164445250Y-101667000D01*
X164400000Y-101664179D01*
X164285712Y-101675435D01*
X164175816Y-101708772D01*
X164074535Y-101762908D01*
X163985762Y-101835762D01*
X163912908Y-101924535D01*
X163885812Y-101975227D01*
X163870000Y-101973670D01*
X163827427Y-101973670D01*
X163824922Y-101965413D01*
X163792422Y-101904610D01*
X163748684Y-101851315D01*
X163735324Y-101840351D01*
X163634653Y-101739680D01*
X163623684Y-101726314D01*
X163570389Y-101682577D01*
X163509586Y-101650077D01*
X163443611Y-101630064D01*
X163392188Y-101624999D01*
X163392187Y-101624999D01*
X163374999Y-101623306D01*
X163357811Y-101624999D01*
X161657187Y-101624999D01*
X161639998Y-101623306D01*
X161571386Y-101630064D01*
X161556572Y-101634558D01*
X161505412Y-101650077D01*
X161444609Y-101682577D01*
X161391314Y-101726314D01*
X161380354Y-101739669D01*
X161359998Y-101760025D01*
X160425001Y-100825030D01*
X160425001Y-100056638D01*
X160447097Y-100167721D01*
X160490442Y-100272365D01*
X160553368Y-100366541D01*
X160633459Y-100446632D01*
X160727635Y-100509558D01*
X160832279Y-100552903D01*
X160943367Y-100575000D01*
X161056633Y-100575000D01*
X161125532Y-100561295D01*
X161053368Y-100633459D01*
X160990442Y-100727635D01*
X160947097Y-100832279D01*
X160925000Y-100943367D01*
X160925000Y-101056633D01*
X160947097Y-101167721D01*
X160990442Y-101272365D01*
X161053368Y-101366541D01*
X161133459Y-101446632D01*
X161227635Y-101509558D01*
X161332279Y-101552903D01*
X161443367Y-101575000D01*
X161556633Y-101575000D01*
X161667721Y-101552903D01*
X161772365Y-101509558D01*
X161866541Y-101446632D01*
X161946632Y-101366541D01*
X162009558Y-101272365D01*
X162052903Y-101167721D01*
X162075000Y-101056633D01*
X162075000Y-101026330D01*
X162600000Y-101026330D01*
X162653909Y-101021020D01*
X162705747Y-101005296D01*
X162753521Y-100979760D01*
X162795395Y-100945395D01*
X162829760Y-100903521D01*
X162855296Y-100855747D01*
X162865000Y-100823755D01*
X162874704Y-100855747D01*
X162900240Y-100903521D01*
X162934605Y-100945395D01*
X162976479Y-100979760D01*
X163024253Y-101005296D01*
X163076091Y-101021020D01*
X163130000Y-101026330D01*
X163870000Y-101026330D01*
X163923909Y-101021020D01*
X163975747Y-101005296D01*
X164023521Y-100979760D01*
X164065395Y-100945395D01*
X164099760Y-100903521D01*
X164125296Y-100855747D01*
X164135000Y-100823755D01*
X164144704Y-100855747D01*
X164170240Y-100903521D01*
X164204605Y-100945395D01*
X164246479Y-100979760D01*
X164294253Y-101005296D01*
X164346091Y-101021020D01*
X164400000Y-101026330D01*
X165140000Y-101026330D01*
X165150001Y-101025345D01*
X165150001Y-101665164D01*
X165140000Y-101664179D01*
X165094750Y-101667000D01*
X164949000Y-101812750D01*
X164949000Y-103271000D01*
X164969000Y-103271000D01*
X164969000Y-103629000D01*
X164949000Y-103629000D01*
X164949000Y-105087250D01*
X165094750Y-105233000D01*
X165140000Y-105235821D01*
X165150001Y-105234836D01*
X165150000Y-112850028D01*
X165083000Y-112917028D01*
X165083000Y-112820998D01*
X164937252Y-112820998D01*
X165083000Y-112675250D01*
X165085821Y-112500000D01*
X165074565Y-112385712D01*
X165041228Y-112275816D01*
X164987092Y-112174535D01*
X164914238Y-112085762D01*
X164825465Y-112012908D01*
X164724184Y-111958772D01*
X164614288Y-111925435D01*
X164500000Y-111914179D01*
X164324750Y-111917000D01*
X164179000Y-112062750D01*
X164179000Y-112821000D01*
X164199000Y-112821000D01*
X164199000Y-113179000D01*
X164179000Y-113179000D01*
X164179000Y-113199000D01*
X163821000Y-113199000D01*
X163821000Y-113179000D01*
X163062750Y-113179000D01*
X162917000Y-113324750D01*
X162914179Y-113500000D01*
X162925435Y-113614288D01*
X162936268Y-113650000D01*
X159457684Y-113650000D01*
X159446632Y-113633459D01*
X159366541Y-113553368D01*
X159272365Y-113490442D01*
X159167721Y-113447097D01*
X159056633Y-113425000D01*
X158943367Y-113425000D01*
X158832279Y-113447097D01*
X158727635Y-113490442D01*
X158633459Y-113553368D01*
X158553368Y-113633459D01*
X158490442Y-113727635D01*
X158447097Y-113832279D01*
X158425000Y-113943367D01*
X158425000Y-114056633D01*
X158447097Y-114167721D01*
X158490442Y-114272365D01*
X158553368Y-114366541D01*
X158633459Y-114446632D01*
X158727635Y-114509558D01*
X158832279Y-114552903D01*
X158943367Y-114575000D01*
X159056633Y-114575000D01*
X159167721Y-114552903D01*
X159272365Y-114509558D01*
X159366541Y-114446632D01*
X159446632Y-114366541D01*
X159457684Y-114350000D01*
X164477814Y-114350000D01*
X164495002Y-114351693D01*
X164512190Y-114350000D01*
X164512191Y-114350000D01*
X164563614Y-114344935D01*
X164629589Y-114324922D01*
X164690392Y-114292422D01*
X164743687Y-114248685D01*
X164754655Y-114235320D01*
X165735329Y-113254647D01*
X165748684Y-113243687D01*
X165773000Y-113214058D01*
X165773000Y-114773000D01*
X155227000Y-114773000D01*
X155227000Y-97834750D01*
X158597000Y-97834750D01*
X158611121Y-97919869D01*
X158649339Y-98028165D01*
X158707950Y-98126923D01*
X158784702Y-98212349D01*
X158876645Y-98281160D01*
X158980245Y-98330713D01*
X159091522Y-98359101D01*
X159175250Y-98363000D01*
X159321000Y-98217250D01*
X159321000Y-97689000D01*
X158742750Y-97689000D01*
X158597000Y-97834750D01*
X155227000Y-97834750D01*
X155227000Y-95933518D01*
X156325000Y-95933518D01*
X156325000Y-96066482D01*
X156350940Y-96196890D01*
X156401823Y-96319732D01*
X156475693Y-96430287D01*
X156569713Y-96524307D01*
X156680268Y-96598177D01*
X156803110Y-96649060D01*
X156933518Y-96675000D01*
X157066482Y-96675000D01*
X157196890Y-96649060D01*
X157319732Y-96598177D01*
X157430287Y-96524307D01*
X157524307Y-96430287D01*
X157598177Y-96319732D01*
X157649060Y-96196890D01*
X157675000Y-96066482D01*
X157675000Y-95933518D01*
X157649060Y-95803110D01*
X157598177Y-95680268D01*
X157524307Y-95569713D01*
X157455929Y-95501335D01*
X157480296Y-95455747D01*
X157482039Y-95450000D01*
X158064179Y-95450000D01*
X158075435Y-95564288D01*
X158108772Y-95674184D01*
X158162908Y-95775465D01*
X158235762Y-95864238D01*
X158324535Y-95937092D01*
X158425816Y-95991228D01*
X158535712Y-96024565D01*
X158650000Y-96035821D01*
X158725250Y-96033000D01*
X158871000Y-95887250D01*
X158871000Y-95179000D01*
X158212750Y-95179000D01*
X158067000Y-95324750D01*
X158064179Y-95450000D01*
X157482039Y-95450000D01*
X157496020Y-95403909D01*
X157501330Y-95350000D01*
X157501330Y-94750000D01*
X157496020Y-94696091D01*
X157480296Y-94644253D01*
X157454760Y-94596479D01*
X157420395Y-94554605D01*
X157414784Y-94550000D01*
X158064179Y-94550000D01*
X158067000Y-94675250D01*
X158212750Y-94821000D01*
X158871000Y-94821000D01*
X158871000Y-94112750D01*
X159229000Y-94112750D01*
X159229000Y-94821000D01*
X159887250Y-94821000D01*
X160033000Y-94675250D01*
X160035821Y-94550000D01*
X160024565Y-94435712D01*
X159991228Y-94325816D01*
X159937092Y-94224535D01*
X159864238Y-94135762D01*
X159775465Y-94062908D01*
X159674184Y-94008772D01*
X159564288Y-93975435D01*
X159450000Y-93964179D01*
X159374750Y-93967000D01*
X159229000Y-94112750D01*
X158871000Y-94112750D01*
X158725250Y-93967000D01*
X158650000Y-93964179D01*
X158535712Y-93975435D01*
X158425816Y-94008772D01*
X158324535Y-94062908D01*
X158235762Y-94135762D01*
X158162908Y-94224535D01*
X158108772Y-94325816D01*
X158075435Y-94435712D01*
X158064179Y-94550000D01*
X157414784Y-94550000D01*
X157378521Y-94520240D01*
X157330747Y-94494704D01*
X157278909Y-94478980D01*
X157225000Y-94473670D01*
X156775000Y-94473670D01*
X156721091Y-94478980D01*
X156669253Y-94494704D01*
X156621479Y-94520240D01*
X156579605Y-94554605D01*
X156545240Y-94596479D01*
X156519704Y-94644253D01*
X156503980Y-94696091D01*
X156498670Y-94750000D01*
X156498670Y-95350000D01*
X156503980Y-95403909D01*
X156519704Y-95455747D01*
X156544071Y-95501335D01*
X156475693Y-95569713D01*
X156401823Y-95680268D01*
X156350940Y-95803110D01*
X156325000Y-95933518D01*
X155227000Y-95933518D01*
X155227000Y-92650000D01*
X156498670Y-92650000D01*
X156498670Y-93250000D01*
X156503980Y-93303909D01*
X156519704Y-93355747D01*
X156545240Y-93403521D01*
X156579605Y-93445395D01*
X156621479Y-93479760D01*
X156669253Y-93505296D01*
X156721091Y-93521020D01*
X156775000Y-93526330D01*
X157225000Y-93526330D01*
X157278909Y-93521020D01*
X157330747Y-93505296D01*
X157378521Y-93479760D01*
X157420395Y-93445395D01*
X157454760Y-93403521D01*
X157456642Y-93400000D01*
X159323670Y-93400000D01*
X159323670Y-93450000D01*
X159328980Y-93503909D01*
X159344704Y-93555747D01*
X159370240Y-93603521D01*
X159404605Y-93645395D01*
X159446479Y-93679760D01*
X159494253Y-93705296D01*
X159546091Y-93721020D01*
X159600000Y-93726330D01*
X160400000Y-93726330D01*
X160453909Y-93721020D01*
X160505747Y-93705296D01*
X160553521Y-93679760D01*
X160595395Y-93645395D01*
X160629760Y-93603521D01*
X160655296Y-93555747D01*
X160671020Y-93503909D01*
X160676330Y-93450000D01*
X162995406Y-93450000D01*
X163069713Y-93524307D01*
X163180268Y-93598177D01*
X163303110Y-93649060D01*
X163433518Y-93675000D01*
X163566482Y-93675000D01*
X163696890Y-93649060D01*
X163819732Y-93598177D01*
X163930287Y-93524307D01*
X164024307Y-93430287D01*
X164098177Y-93319732D01*
X164149060Y-93196890D01*
X164175000Y-93066482D01*
X164175000Y-92933518D01*
X164149060Y-92803110D01*
X164098177Y-92680268D01*
X164024307Y-92569713D01*
X163930287Y-92475693D01*
X163819732Y-92401823D01*
X163696890Y-92350940D01*
X163566482Y-92325000D01*
X163433518Y-92325000D01*
X163303110Y-92350940D01*
X163180268Y-92401823D01*
X163069713Y-92475693D01*
X162995406Y-92550000D01*
X160676330Y-92550000D01*
X160671020Y-92496091D01*
X160655296Y-92444253D01*
X160629760Y-92396479D01*
X160595395Y-92354605D01*
X160553521Y-92320240D01*
X160505747Y-92294704D01*
X160453909Y-92278980D01*
X160400000Y-92273670D01*
X159600000Y-92273670D01*
X159546091Y-92278980D01*
X159494253Y-92294704D01*
X159446479Y-92320240D01*
X159404605Y-92354605D01*
X159370240Y-92396479D01*
X159344704Y-92444253D01*
X159328980Y-92496091D01*
X159328595Y-92500000D01*
X157456642Y-92500000D01*
X157454760Y-92496479D01*
X157420395Y-92454605D01*
X157378521Y-92420240D01*
X157330747Y-92394704D01*
X157278909Y-92378980D01*
X157225000Y-92373670D01*
X156775000Y-92373670D01*
X156721091Y-92378980D01*
X156669253Y-92394704D01*
X156621479Y-92420240D01*
X156579605Y-92454605D01*
X156545240Y-92496479D01*
X156519704Y-92544253D01*
X156503980Y-92596091D01*
X156498670Y-92650000D01*
X155227000Y-92650000D01*
X155227000Y-89227000D01*
X165773001Y-89227000D01*
X165773001Y-100060944D01*
%TA.AperFunction,Conductor*%
D22*
G36*
X165773001Y-100060944D02*
G01*
X165748685Y-100031315D01*
X165735325Y-100020351D01*
X165416330Y-99701356D01*
X165416330Y-98350000D01*
X165411020Y-98296091D01*
X165395296Y-98244253D01*
X165369760Y-98196479D01*
X165335395Y-98154605D01*
X165293521Y-98120240D01*
X165245747Y-98094704D01*
X165193909Y-98078980D01*
X165140000Y-98073670D01*
X164400000Y-98073670D01*
X164346091Y-98078980D01*
X164294253Y-98094704D01*
X164246479Y-98120240D01*
X164204605Y-98154605D01*
X164170240Y-98196479D01*
X164144704Y-98244253D01*
X164135000Y-98276245D01*
X164125296Y-98244253D01*
X164099760Y-98196479D01*
X164065395Y-98154605D01*
X164023521Y-98120240D01*
X163975747Y-98094704D01*
X163923909Y-98078980D01*
X163870000Y-98073670D01*
X163313645Y-98073670D01*
X163079654Y-97839679D01*
X163068686Y-97826314D01*
X163015391Y-97782577D01*
X162954588Y-97750077D01*
X162888613Y-97730064D01*
X162837190Y-97724999D01*
X162837189Y-97724999D01*
X162820001Y-97723306D01*
X162802813Y-97724999D01*
X161657184Y-97724999D01*
X161639998Y-97723306D01*
X161622812Y-97724999D01*
X161622810Y-97724999D01*
X161571387Y-97730064D01*
X161505412Y-97750077D01*
X161444609Y-97782577D01*
X161391314Y-97826314D01*
X161380354Y-97839669D01*
X160850000Y-98370025D01*
X160850000Y-98020962D01*
X160913523Y-97987008D01*
X160975854Y-97935854D01*
X161027008Y-97873523D01*
X161065019Y-97802409D01*
X161088426Y-97725247D01*
X161096330Y-97645000D01*
X161096330Y-97375000D01*
X161088426Y-97294753D01*
X161065019Y-97217591D01*
X161027008Y-97146477D01*
X160975854Y-97084146D01*
X160913523Y-97032992D01*
X160851799Y-97000000D01*
X160913523Y-96967008D01*
X160975854Y-96915854D01*
X161027008Y-96853523D01*
X161065019Y-96782409D01*
X161088426Y-96705247D01*
X161096330Y-96625000D01*
X161096330Y-96530066D01*
X161252572Y-96373824D01*
X161269737Y-96359737D01*
X161283824Y-96342572D01*
X161283828Y-96342568D01*
X161325971Y-96291217D01*
X161367757Y-96213041D01*
X161379891Y-96173040D01*
X161393489Y-96128215D01*
X161400000Y-96062105D01*
X161400000Y-96062095D01*
X161402176Y-96040001D01*
X161400000Y-96017906D01*
X161400000Y-95721405D01*
X161403909Y-95721020D01*
X161455747Y-95705296D01*
X161503521Y-95679760D01*
X161545395Y-95645395D01*
X161579760Y-95603521D01*
X161605296Y-95555747D01*
X161621020Y-95503909D01*
X161626330Y-95450000D01*
X161626330Y-94550000D01*
X161621020Y-94496091D01*
X161605296Y-94444253D01*
X161579760Y-94396479D01*
X161545395Y-94354605D01*
X161503521Y-94320240D01*
X161455747Y-94294704D01*
X161403909Y-94278980D01*
X161350000Y-94273670D01*
X160550000Y-94273670D01*
X160496091Y-94278980D01*
X160444253Y-94294704D01*
X160396479Y-94320240D01*
X160354605Y-94354605D01*
X160320240Y-94396479D01*
X160294704Y-94444253D01*
X160278980Y-94496091D01*
X160273670Y-94550000D01*
X160273670Y-95450000D01*
X160278980Y-95503909D01*
X160294704Y-95555747D01*
X160320240Y-95603521D01*
X160354605Y-95645395D01*
X160396479Y-95679760D01*
X160444253Y-95705296D01*
X160496091Y-95721020D01*
X160500001Y-95721405D01*
X160500001Y-95853603D01*
X160409934Y-95943670D01*
X160315000Y-95943670D01*
X160234753Y-95951574D01*
X160157591Y-95974981D01*
X160086477Y-96012992D01*
X160053568Y-96040000D01*
X159946432Y-96040000D01*
X159913523Y-96012992D01*
X159842409Y-95974981D01*
X159765247Y-95951574D01*
X159750997Y-95950170D01*
X159775465Y-95937092D01*
X159864238Y-95864238D01*
X159937092Y-95775465D01*
X159991228Y-95674184D01*
X160024565Y-95564288D01*
X160035821Y-95450000D01*
X160033000Y-95324750D01*
X159887250Y-95179000D01*
X159229000Y-95179000D01*
X159229000Y-95887250D01*
X159288072Y-95946322D01*
X159234753Y-95951574D01*
X159157591Y-95974981D01*
X159086477Y-96012992D01*
X159024146Y-96064146D01*
X158972992Y-96126477D01*
X158934981Y-96197591D01*
X158911574Y-96274753D01*
X158903670Y-96355000D01*
X158903670Y-96625000D01*
X158911574Y-96705247D01*
X158916047Y-96719993D01*
X158876645Y-96738840D01*
X158784702Y-96807651D01*
X158707950Y-96893077D01*
X158649339Y-96991835D01*
X158611121Y-97100131D01*
X158597000Y-97185250D01*
X158742750Y-97331000D01*
X159321000Y-97331000D01*
X159321000Y-97311000D01*
X159679000Y-97311000D01*
X159679000Y-97331000D01*
X159699000Y-97331000D01*
X159699000Y-97689000D01*
X159679000Y-97689000D01*
X159679000Y-98217250D01*
X159824750Y-98363000D01*
X159908478Y-98359101D01*
X160019755Y-98330713D01*
X160123355Y-98281160D01*
X160150000Y-98261218D01*
X160150000Y-98505027D01*
X159839676Y-98815353D01*
X159826317Y-98826316D01*
X159782580Y-98879611D01*
X159766130Y-98910387D01*
X159750080Y-98940414D01*
X159730066Y-99006390D01*
X159723308Y-99075001D01*
X159725002Y-99092199D01*
X159725002Y-99470823D01*
X159667721Y-99447097D01*
X159556633Y-99425000D01*
X159443367Y-99425000D01*
X159332279Y-99447097D01*
X159227635Y-99490442D01*
X159133459Y-99553368D01*
X159053368Y-99633459D01*
X158990442Y-99727635D01*
X158947097Y-99832279D01*
X158925000Y-99943367D01*
X158925000Y-100009315D01*
X158834315Y-100100000D01*
X157315331Y-100100000D01*
X157319732Y-100098177D01*
X157430287Y-100024307D01*
X157524307Y-99930287D01*
X157598177Y-99819732D01*
X157649060Y-99696890D01*
X157675000Y-99566482D01*
X157675000Y-99433518D01*
X157649060Y-99303110D01*
X157598177Y-99180268D01*
X157524307Y-99069713D01*
X157430287Y-98975693D01*
X157319732Y-98901823D01*
X157196890Y-98850940D01*
X157066482Y-98825000D01*
X156933518Y-98825000D01*
X156803110Y-98850940D01*
X156680268Y-98901823D01*
X156569713Y-98975693D01*
X156475693Y-99069713D01*
X156401823Y-99180268D01*
X156350940Y-99303110D01*
X156325000Y-99433518D01*
X156325000Y-99538604D01*
X155697429Y-100166176D01*
X155680264Y-100180263D01*
X155666177Y-100197428D01*
X155666172Y-100197433D01*
X155624029Y-100248784D01*
X155582243Y-100326960D01*
X155556512Y-100411785D01*
X155547824Y-100500000D01*
X155550001Y-100522104D01*
X155550000Y-104138499D01*
X155490442Y-104227635D01*
X155447097Y-104332279D01*
X155425000Y-104443367D01*
X155425000Y-104556633D01*
X155447097Y-104667721D01*
X155490442Y-104772365D01*
X155553368Y-104866541D01*
X155633459Y-104946632D01*
X155727635Y-105009558D01*
X155832279Y-105052903D01*
X155937422Y-105073818D01*
X156550001Y-105686397D01*
X156550000Y-108138499D01*
X156490442Y-108227635D01*
X156447097Y-108332279D01*
X156425000Y-108443367D01*
X156425000Y-108556633D01*
X156447097Y-108667721D01*
X156490442Y-108772365D01*
X156550000Y-108861501D01*
X156550000Y-109022104D01*
X156550001Y-109022114D01*
X156550000Y-110977905D01*
X156547824Y-111000000D01*
X156550000Y-111022094D01*
X156550000Y-111022104D01*
X156550001Y-111022114D01*
X156550000Y-112032104D01*
X156550001Y-112032114D01*
X156550001Y-112368595D01*
X156505966Y-112398018D01*
X156398018Y-112505966D01*
X156313204Y-112632900D01*
X156254783Y-112773941D01*
X156225000Y-112923669D01*
X156225000Y-113076331D01*
X156254783Y-113226059D01*
X156313204Y-113367100D01*
X156398018Y-113494034D01*
X156505966Y-113601982D01*
X156632900Y-113686796D01*
X156773941Y-113745217D01*
X156923669Y-113775000D01*
X157076331Y-113775000D01*
X157226059Y-113745217D01*
X157367100Y-113686796D01*
X157494034Y-113601982D01*
X157601982Y-113494034D01*
X157686796Y-113367100D01*
X157745217Y-113226059D01*
X157775000Y-113076331D01*
X157775000Y-112923669D01*
X157745217Y-112773941D01*
X157686796Y-112632900D01*
X157601982Y-112505966D01*
X157494034Y-112398018D01*
X157450000Y-112368596D01*
X157450000Y-111460000D01*
X157553568Y-111460000D01*
X157586477Y-111487008D01*
X157657591Y-111525019D01*
X157734753Y-111548426D01*
X157815000Y-111556330D01*
X158185000Y-111556330D01*
X158265247Y-111548426D01*
X158342409Y-111525019D01*
X158413523Y-111487008D01*
X158475854Y-111435854D01*
X158527008Y-111373523D01*
X158565019Y-111302409D01*
X158588426Y-111225247D01*
X158596330Y-111145000D01*
X158596330Y-111100000D01*
X159111497Y-111100000D01*
X159125000Y-111101330D01*
X159775000Y-111101330D01*
X159828909Y-111096020D01*
X159880747Y-111080296D01*
X159915475Y-111061733D01*
X159946091Y-111071020D01*
X160000000Y-111076330D01*
X161000000Y-111076330D01*
X161053909Y-111071020D01*
X161084525Y-111061733D01*
X161119253Y-111080296D01*
X161171091Y-111096020D01*
X161225000Y-111101330D01*
X161875000Y-111101330D01*
X161888503Y-111100000D01*
X162003605Y-111100000D01*
X162186175Y-111282571D01*
X162200263Y-111299737D01*
X162217428Y-111313824D01*
X162217432Y-111313828D01*
X162268783Y-111355971D01*
X162278467Y-111361147D01*
X162180268Y-111401823D01*
X162069713Y-111475693D01*
X161975693Y-111569713D01*
X161901823Y-111680268D01*
X161850940Y-111803110D01*
X161825000Y-111933518D01*
X161825000Y-112066482D01*
X161850940Y-112196890D01*
X161901823Y-112319732D01*
X161975693Y-112430287D01*
X162069713Y-112524307D01*
X162180268Y-112598177D01*
X162303110Y-112649060D01*
X162433518Y-112675000D01*
X162566482Y-112675000D01*
X162696890Y-112649060D01*
X162819732Y-112598177D01*
X162914738Y-112534697D01*
X162917000Y-112675250D01*
X163062750Y-112821000D01*
X163821000Y-112821000D01*
X163821000Y-112062750D01*
X163675250Y-111917000D01*
X163500000Y-111914179D01*
X163385712Y-111925435D01*
X163275816Y-111958772D01*
X163175000Y-112012659D01*
X163175000Y-111961396D01*
X163302572Y-111833824D01*
X163319737Y-111819737D01*
X163333824Y-111802572D01*
X163333828Y-111802568D01*
X163375971Y-111751217D01*
X163417757Y-111673041D01*
X163429591Y-111634029D01*
X163443489Y-111588215D01*
X163450000Y-111522105D01*
X163450000Y-111522094D01*
X163452176Y-111500000D01*
X163450000Y-111477906D01*
X163450000Y-111426200D01*
X163464390Y-111414390D01*
X163516166Y-111351301D01*
X163554639Y-111279323D01*
X163578330Y-111201222D01*
X163586330Y-111120000D01*
X163586330Y-110840000D01*
X163583875Y-110815072D01*
X163617133Y-110798854D01*
X163708553Y-110729350D01*
X163784657Y-110643346D01*
X163842520Y-110544148D01*
X163879919Y-110435567D01*
X163893000Y-110344750D01*
X163747250Y-110199000D01*
X163179000Y-110199000D01*
X163179000Y-110219000D01*
X162821000Y-110219000D01*
X162821000Y-110199000D01*
X162411250Y-110199000D01*
X162312250Y-110100000D01*
X161729000Y-110100000D01*
X161729000Y-110175000D01*
X161371000Y-110175000D01*
X161371000Y-110100000D01*
X161351000Y-110100000D01*
X161351000Y-109900000D01*
X161371000Y-109900000D01*
X161371000Y-109825000D01*
X161729000Y-109825000D01*
X161729000Y-109900000D01*
X162312250Y-109900000D01*
X162371250Y-109841000D01*
X162520569Y-109841000D01*
X162591522Y-109859101D01*
X162675250Y-109863000D01*
X162697250Y-109841000D01*
X162821000Y-109841000D01*
X162821000Y-109189000D01*
X163179000Y-109189000D01*
X163179000Y-109841000D01*
X163302750Y-109841000D01*
X163324750Y-109863000D01*
X163408478Y-109859101D01*
X163479431Y-109841000D01*
X163747250Y-109841000D01*
X163893000Y-109695250D01*
X163879919Y-109604433D01*
X163852173Y-109523879D01*
X163888879Y-109419869D01*
X163903000Y-109334750D01*
X163757250Y-109189000D01*
X163507025Y-109189000D01*
X163402851Y-109161584D01*
X163324750Y-109157000D01*
X163292750Y-109189000D01*
X163179000Y-109189000D01*
X162821000Y-109189000D01*
X162801000Y-109189000D01*
X162801000Y-108831000D01*
X162821000Y-108831000D01*
X162821000Y-108811000D01*
X163179000Y-108811000D01*
X163179000Y-108831000D01*
X163757250Y-108831000D01*
X163903000Y-108685250D01*
X163888879Y-108600131D01*
X163850661Y-108491835D01*
X163792050Y-108393077D01*
X163715298Y-108307651D01*
X163623355Y-108238840D01*
X163583953Y-108219993D01*
X163588426Y-108205247D01*
X163596330Y-108125000D01*
X163596330Y-107855000D01*
X163588426Y-107774753D01*
X163565019Y-107697591D01*
X163527008Y-107626477D01*
X163475854Y-107564146D01*
X163413523Y-107512992D01*
X163342409Y-107474981D01*
X163265247Y-107451574D01*
X163185000Y-107443670D01*
X162894493Y-107443670D01*
X162946632Y-107391531D01*
X163009558Y-107297355D01*
X163052903Y-107192711D01*
X163075000Y-107081623D01*
X163075000Y-106968357D01*
X163052903Y-106857269D01*
X163009558Y-106752625D01*
X162946632Y-106658449D01*
X162866541Y-106578358D01*
X162850000Y-106567306D01*
X162850000Y-105782664D01*
X162866541Y-105771612D01*
X162946632Y-105691521D01*
X163009558Y-105597345D01*
X163052903Y-105492701D01*
X163075000Y-105381613D01*
X163075000Y-105268347D01*
X163052903Y-105157259D01*
X163009558Y-105052615D01*
X162946632Y-104958439D01*
X162866541Y-104878348D01*
X162803125Y-104835975D01*
X162829760Y-104803521D01*
X162855296Y-104755747D01*
X162865000Y-104723755D01*
X162874704Y-104755747D01*
X162900240Y-104803521D01*
X162934605Y-104845395D01*
X162976479Y-104879760D01*
X163024253Y-104905296D01*
X163076091Y-104921020D01*
X163130000Y-104926330D01*
X163870000Y-104926330D01*
X163885812Y-104924773D01*
X163912908Y-104975465D01*
X163985762Y-105064238D01*
X164074535Y-105137092D01*
X164175816Y-105191228D01*
X164285712Y-105224565D01*
X164400000Y-105235821D01*
X164445250Y-105233000D01*
X164591000Y-105087250D01*
X164591000Y-103629000D01*
X164571000Y-103629000D01*
X164571000Y-103271000D01*
X164591000Y-103271000D01*
X164591000Y-101812750D01*
X164445250Y-101667000D01*
X164400000Y-101664179D01*
X164285712Y-101675435D01*
X164175816Y-101708772D01*
X164074535Y-101762908D01*
X163985762Y-101835762D01*
X163912908Y-101924535D01*
X163885812Y-101975227D01*
X163870000Y-101973670D01*
X163827427Y-101973670D01*
X163824922Y-101965413D01*
X163792422Y-101904610D01*
X163748684Y-101851315D01*
X163735324Y-101840351D01*
X163634653Y-101739680D01*
X163623684Y-101726314D01*
X163570389Y-101682577D01*
X163509586Y-101650077D01*
X163443611Y-101630064D01*
X163392188Y-101624999D01*
X163392187Y-101624999D01*
X163374999Y-101623306D01*
X163357811Y-101624999D01*
X161657187Y-101624999D01*
X161639998Y-101623306D01*
X161571386Y-101630064D01*
X161556572Y-101634558D01*
X161505412Y-101650077D01*
X161444609Y-101682577D01*
X161391314Y-101726314D01*
X161380354Y-101739669D01*
X161359998Y-101760025D01*
X160425001Y-100825030D01*
X160425001Y-100056638D01*
X160447097Y-100167721D01*
X160490442Y-100272365D01*
X160553368Y-100366541D01*
X160633459Y-100446632D01*
X160727635Y-100509558D01*
X160832279Y-100552903D01*
X160943367Y-100575000D01*
X161056633Y-100575000D01*
X161125532Y-100561295D01*
X161053368Y-100633459D01*
X160990442Y-100727635D01*
X160947097Y-100832279D01*
X160925000Y-100943367D01*
X160925000Y-101056633D01*
X160947097Y-101167721D01*
X160990442Y-101272365D01*
X161053368Y-101366541D01*
X161133459Y-101446632D01*
X161227635Y-101509558D01*
X161332279Y-101552903D01*
X161443367Y-101575000D01*
X161556633Y-101575000D01*
X161667721Y-101552903D01*
X161772365Y-101509558D01*
X161866541Y-101446632D01*
X161946632Y-101366541D01*
X162009558Y-101272365D01*
X162052903Y-101167721D01*
X162075000Y-101056633D01*
X162075000Y-101026330D01*
X162600000Y-101026330D01*
X162653909Y-101021020D01*
X162705747Y-101005296D01*
X162753521Y-100979760D01*
X162795395Y-100945395D01*
X162829760Y-100903521D01*
X162855296Y-100855747D01*
X162865000Y-100823755D01*
X162874704Y-100855747D01*
X162900240Y-100903521D01*
X162934605Y-100945395D01*
X162976479Y-100979760D01*
X163024253Y-101005296D01*
X163076091Y-101021020D01*
X163130000Y-101026330D01*
X163870000Y-101026330D01*
X163923909Y-101021020D01*
X163975747Y-101005296D01*
X164023521Y-100979760D01*
X164065395Y-100945395D01*
X164099760Y-100903521D01*
X164125296Y-100855747D01*
X164135000Y-100823755D01*
X164144704Y-100855747D01*
X164170240Y-100903521D01*
X164204605Y-100945395D01*
X164246479Y-100979760D01*
X164294253Y-101005296D01*
X164346091Y-101021020D01*
X164400000Y-101026330D01*
X165140000Y-101026330D01*
X165150001Y-101025345D01*
X165150001Y-101665164D01*
X165140000Y-101664179D01*
X165094750Y-101667000D01*
X164949000Y-101812750D01*
X164949000Y-103271000D01*
X164969000Y-103271000D01*
X164969000Y-103629000D01*
X164949000Y-103629000D01*
X164949000Y-105087250D01*
X165094750Y-105233000D01*
X165140000Y-105235821D01*
X165150001Y-105234836D01*
X165150000Y-112850028D01*
X165083000Y-112917028D01*
X165083000Y-112820998D01*
X164937252Y-112820998D01*
X165083000Y-112675250D01*
X165085821Y-112500000D01*
X165074565Y-112385712D01*
X165041228Y-112275816D01*
X164987092Y-112174535D01*
X164914238Y-112085762D01*
X164825465Y-112012908D01*
X164724184Y-111958772D01*
X164614288Y-111925435D01*
X164500000Y-111914179D01*
X164324750Y-111917000D01*
X164179000Y-112062750D01*
X164179000Y-112821000D01*
X164199000Y-112821000D01*
X164199000Y-113179000D01*
X164179000Y-113179000D01*
X164179000Y-113199000D01*
X163821000Y-113199000D01*
X163821000Y-113179000D01*
X163062750Y-113179000D01*
X162917000Y-113324750D01*
X162914179Y-113500000D01*
X162925435Y-113614288D01*
X162936268Y-113650000D01*
X159457684Y-113650000D01*
X159446632Y-113633459D01*
X159366541Y-113553368D01*
X159272365Y-113490442D01*
X159167721Y-113447097D01*
X159056633Y-113425000D01*
X158943367Y-113425000D01*
X158832279Y-113447097D01*
X158727635Y-113490442D01*
X158633459Y-113553368D01*
X158553368Y-113633459D01*
X158490442Y-113727635D01*
X158447097Y-113832279D01*
X158425000Y-113943367D01*
X158425000Y-114056633D01*
X158447097Y-114167721D01*
X158490442Y-114272365D01*
X158553368Y-114366541D01*
X158633459Y-114446632D01*
X158727635Y-114509558D01*
X158832279Y-114552903D01*
X158943367Y-114575000D01*
X159056633Y-114575000D01*
X159167721Y-114552903D01*
X159272365Y-114509558D01*
X159366541Y-114446632D01*
X159446632Y-114366541D01*
X159457684Y-114350000D01*
X164477814Y-114350000D01*
X164495002Y-114351693D01*
X164512190Y-114350000D01*
X164512191Y-114350000D01*
X164563614Y-114344935D01*
X164629589Y-114324922D01*
X164690392Y-114292422D01*
X164743687Y-114248685D01*
X164754655Y-114235320D01*
X165735329Y-113254647D01*
X165748684Y-113243687D01*
X165773000Y-113214058D01*
X165773000Y-114773000D01*
X155227000Y-114773000D01*
X155227000Y-97834750D01*
X158597000Y-97834750D01*
X158611121Y-97919869D01*
X158649339Y-98028165D01*
X158707950Y-98126923D01*
X158784702Y-98212349D01*
X158876645Y-98281160D01*
X158980245Y-98330713D01*
X159091522Y-98359101D01*
X159175250Y-98363000D01*
X159321000Y-98217250D01*
X159321000Y-97689000D01*
X158742750Y-97689000D01*
X158597000Y-97834750D01*
X155227000Y-97834750D01*
X155227000Y-95933518D01*
X156325000Y-95933518D01*
X156325000Y-96066482D01*
X156350940Y-96196890D01*
X156401823Y-96319732D01*
X156475693Y-96430287D01*
X156569713Y-96524307D01*
X156680268Y-96598177D01*
X156803110Y-96649060D01*
X156933518Y-96675000D01*
X157066482Y-96675000D01*
X157196890Y-96649060D01*
X157319732Y-96598177D01*
X157430287Y-96524307D01*
X157524307Y-96430287D01*
X157598177Y-96319732D01*
X157649060Y-96196890D01*
X157675000Y-96066482D01*
X157675000Y-95933518D01*
X157649060Y-95803110D01*
X157598177Y-95680268D01*
X157524307Y-95569713D01*
X157455929Y-95501335D01*
X157480296Y-95455747D01*
X157482039Y-95450000D01*
X158064179Y-95450000D01*
X158075435Y-95564288D01*
X158108772Y-95674184D01*
X158162908Y-95775465D01*
X158235762Y-95864238D01*
X158324535Y-95937092D01*
X158425816Y-95991228D01*
X158535712Y-96024565D01*
X158650000Y-96035821D01*
X158725250Y-96033000D01*
X158871000Y-95887250D01*
X158871000Y-95179000D01*
X158212750Y-95179000D01*
X158067000Y-95324750D01*
X158064179Y-95450000D01*
X157482039Y-95450000D01*
X157496020Y-95403909D01*
X157501330Y-95350000D01*
X157501330Y-94750000D01*
X157496020Y-94696091D01*
X157480296Y-94644253D01*
X157454760Y-94596479D01*
X157420395Y-94554605D01*
X157414784Y-94550000D01*
X158064179Y-94550000D01*
X158067000Y-94675250D01*
X158212750Y-94821000D01*
X158871000Y-94821000D01*
X158871000Y-94112750D01*
X159229000Y-94112750D01*
X159229000Y-94821000D01*
X159887250Y-94821000D01*
X160033000Y-94675250D01*
X160035821Y-94550000D01*
X160024565Y-94435712D01*
X159991228Y-94325816D01*
X159937092Y-94224535D01*
X159864238Y-94135762D01*
X159775465Y-94062908D01*
X159674184Y-94008772D01*
X159564288Y-93975435D01*
X159450000Y-93964179D01*
X159374750Y-93967000D01*
X159229000Y-94112750D01*
X158871000Y-94112750D01*
X158725250Y-93967000D01*
X158650000Y-93964179D01*
X158535712Y-93975435D01*
X158425816Y-94008772D01*
X158324535Y-94062908D01*
X158235762Y-94135762D01*
X158162908Y-94224535D01*
X158108772Y-94325816D01*
X158075435Y-94435712D01*
X158064179Y-94550000D01*
X157414784Y-94550000D01*
X157378521Y-94520240D01*
X157330747Y-94494704D01*
X157278909Y-94478980D01*
X157225000Y-94473670D01*
X156775000Y-94473670D01*
X156721091Y-94478980D01*
X156669253Y-94494704D01*
X156621479Y-94520240D01*
X156579605Y-94554605D01*
X156545240Y-94596479D01*
X156519704Y-94644253D01*
X156503980Y-94696091D01*
X156498670Y-94750000D01*
X156498670Y-95350000D01*
X156503980Y-95403909D01*
X156519704Y-95455747D01*
X156544071Y-95501335D01*
X156475693Y-95569713D01*
X156401823Y-95680268D01*
X156350940Y-95803110D01*
X156325000Y-95933518D01*
X155227000Y-95933518D01*
X155227000Y-92650000D01*
X156498670Y-92650000D01*
X156498670Y-93250000D01*
X156503980Y-93303909D01*
X156519704Y-93355747D01*
X156545240Y-93403521D01*
X156579605Y-93445395D01*
X156621479Y-93479760D01*
X156669253Y-93505296D01*
X156721091Y-93521020D01*
X156775000Y-93526330D01*
X157225000Y-93526330D01*
X157278909Y-93521020D01*
X157330747Y-93505296D01*
X157378521Y-93479760D01*
X157420395Y-93445395D01*
X157454760Y-93403521D01*
X157456642Y-93400000D01*
X159323670Y-93400000D01*
X159323670Y-93450000D01*
X159328980Y-93503909D01*
X159344704Y-93555747D01*
X159370240Y-93603521D01*
X159404605Y-93645395D01*
X159446479Y-93679760D01*
X159494253Y-93705296D01*
X159546091Y-93721020D01*
X159600000Y-93726330D01*
X160400000Y-93726330D01*
X160453909Y-93721020D01*
X160505747Y-93705296D01*
X160553521Y-93679760D01*
X160595395Y-93645395D01*
X160629760Y-93603521D01*
X160655296Y-93555747D01*
X160671020Y-93503909D01*
X160676330Y-93450000D01*
X162995406Y-93450000D01*
X163069713Y-93524307D01*
X163180268Y-93598177D01*
X163303110Y-93649060D01*
X163433518Y-93675000D01*
X163566482Y-93675000D01*
X163696890Y-93649060D01*
X163819732Y-93598177D01*
X163930287Y-93524307D01*
X164024307Y-93430287D01*
X164098177Y-93319732D01*
X164149060Y-93196890D01*
X164175000Y-93066482D01*
X164175000Y-92933518D01*
X164149060Y-92803110D01*
X164098177Y-92680268D01*
X164024307Y-92569713D01*
X163930287Y-92475693D01*
X163819732Y-92401823D01*
X163696890Y-92350940D01*
X163566482Y-92325000D01*
X163433518Y-92325000D01*
X163303110Y-92350940D01*
X163180268Y-92401823D01*
X163069713Y-92475693D01*
X162995406Y-92550000D01*
X160676330Y-92550000D01*
X160671020Y-92496091D01*
X160655296Y-92444253D01*
X160629760Y-92396479D01*
X160595395Y-92354605D01*
X160553521Y-92320240D01*
X160505747Y-92294704D01*
X160453909Y-92278980D01*
X160400000Y-92273670D01*
X159600000Y-92273670D01*
X159546091Y-92278980D01*
X159494253Y-92294704D01*
X159446479Y-92320240D01*
X159404605Y-92354605D01*
X159370240Y-92396479D01*
X159344704Y-92444253D01*
X159328980Y-92496091D01*
X159328595Y-92500000D01*
X157456642Y-92500000D01*
X157454760Y-92496479D01*
X157420395Y-92454605D01*
X157378521Y-92420240D01*
X157330747Y-92394704D01*
X157278909Y-92378980D01*
X157225000Y-92373670D01*
X156775000Y-92373670D01*
X156721091Y-92378980D01*
X156669253Y-92394704D01*
X156621479Y-92420240D01*
X156579605Y-92454605D01*
X156545240Y-92496479D01*
X156519704Y-92544253D01*
X156503980Y-92596091D01*
X156498670Y-92650000D01*
X155227000Y-92650000D01*
X155227000Y-89227000D01*
X165773001Y-89227000D01*
X165773001Y-100060944D01*
G37*
%TD.AperFunction*%
%TD*%
M02*
