M48
; DRILL file {KiCad 5.1.10} date Tue Jun 29 06:22:01 2021
; FORMAT={-:-/ absolute / inch / decimal}
; #@! TF.CreationDate,2021-06-29T06:22:01+03:00
; #@! TF.GenerationSoftware,Kicad,Pcbnew,5.1.10
; #@! TF.FileFunction,Plated,1,2,PTH
FMAT,2
INCH
T1C0.0118
T2C0.0157
%
G90
G05
T1
X6.122Y-3.6811
X6.122Y-3.7598
X6.122Y-3.937
X6.122Y-4.3504
X6.122Y-4.4291
X6.122Y-4.5079
X6.1417Y-3.6417
X6.1417Y-3.7205
X6.1417Y-4.1142
X6.1811Y-4.2717
X6.2008Y-3.9813
X6.2598Y-4.4882
X6.2795Y-3.937
X6.2795Y-4.4488
X6.3386Y-3.937
X6.3386Y-4.4488
X6.3528Y-4.1142
X6.3583Y-3.7008
X6.3583Y-3.8189
X6.3583Y-3.9764
X6.3976Y-4.1467
X6.3976Y-4.2136
X6.4173Y-3.7008
X6.4173Y-3.7598
X6.4764Y-4.1929
X6.4764Y-4.252
X6.4764Y-4.311
T2
X6.1811Y-3.7795
X6.1811Y-3.9173
X6.3976Y-4.4094
X6.437Y-3.6614
T0
M30
